<?xml version="1.0" encoding="UTF-8" standalone="no"?>
<!-- Created with Inkscape (http://www.inkscape.org/) -->

<svg
   version="1.1"
   id="svg1"
   width="3229.1418"
   height="1147.8593"
   viewBox="0 0 3229.1418 1147.8593"
   xmlns="http://www.w3.org/2000/svg"
   xmlns:svg="http://www.w3.org/2000/svg">
  <defs
     id="defs1">
    <clipPath
       clipPathUnits="userSpaceOnUse"
       id="clipPath2">
      <path
         d="M 0,1132 H 2494.49 V 0 H 0 Z"
         transform="translate(-739.15822,-500.27831)"
         id="path2" />
    </clipPath>
    <clipPath
       clipPathUnits="userSpaceOnUse"
       id="clipPath4">
      <path
         d="M 0,1132 H 2494.49 V 0 H 0 Z"
         transform="translate(-972.9004,-591.02492)"
         id="path4" />
    </clipPath>
    <clipPath
       clipPathUnits="userSpaceOnUse"
       id="clipPath6">
      <path
         d="M 0,1132 H 2494.49 V 0 H 0 Z"
         transform="translate(-1596.2637,-629.22021)"
         id="path6" />
    </clipPath>
    <clipPath
       clipPathUnits="userSpaceOnUse"
       id="clipPath8">
      <path
         d="M 0,1132 H 2494.49 V 0 H 0 Z"
         transform="translate(-1818.292,-611.38922)"
         id="path8" />
    </clipPath>
    <clipPath
       clipPathUnits="userSpaceOnUse"
       id="clipPath10">
      <path
         d="M 0,1132 H 2494.49 V 0 H 0 Z"
         transform="translate(-1985.4972,-617.42972)"
         id="path10" />
    </clipPath>
    <clipPath
       clipPathUnits="userSpaceOnUse"
       id="clipPath12">
      <path
         d="M 0,1132 H 2494.49 V 0 H 0 Z"
         transform="translate(-728.09372,-673.04691)"
         id="path12" />
    </clipPath>
    <clipPath
       clipPathUnits="userSpaceOnUse"
       id="clipPath14">
      <path
         d="M 0,1132 H 2494.49 V 0 H 0 Z"
         transform="translate(0,-2.5000001e-5)"
         id="path14" />
    </clipPath>
    <clipPath
       clipPathUnits="userSpaceOnUse"
       id="clipPath16">
      <path
         d="M 0,1132 H 2494.49 V 0 H 0 Z"
         transform="translate(-554.07031,-323.23443)"
         id="path16" />
    </clipPath>
    <clipPath
       clipPathUnits="userSpaceOnUse"
       id="clipPath18">
      <path
         d="M 0,1132 H 2494.49 V 0 H 0 Z"
         transform="translate(-663.54692,-306.88668)"
         id="path18" />
    </clipPath>
    <clipPath
       clipPathUnits="userSpaceOnUse"
       id="clipPath20">
      <path
         d="M 0,1132 H 2494.49 V 0 H 0 Z"
         transform="translate(-774.97172,-258.51461)"
         id="path20" />
    </clipPath>
    <clipPath
       clipPathUnits="userSpaceOnUse"
       id="clipPath22">
      <path
         d="M 0,1132 H 2494.49 V 0 H 0 Z"
         transform="translate(-821.80765,-304.43748)"
         id="path22" />
    </clipPath>
    <clipPath
       clipPathUnits="userSpaceOnUse"
       id="clipPath24">
      <path
         d="M 0,1132 H 2494.49 V 0 H 0 Z"
         transform="translate(-881.67775,-323.23443)"
         id="path24" />
    </clipPath>
    <clipPath
       clipPathUnits="userSpaceOnUse"
       id="clipPath26">
      <path
         d="M 0,1132 H 2494.49 V 0 H 0 Z"
         transform="translate(-898.6738,-323.23443)"
         id="path26" />
    </clipPath>
    <clipPath
       clipPathUnits="userSpaceOnUse"
       id="clipPath28">
      <path
         d="M 0,1132 H 2494.49 V 0 H 0 Z"
         transform="translate(0,-2.5000001e-5)"
         id="path28" />
    </clipPath>
    <clipPath
       clipPathUnits="userSpaceOnUse"
       id="clipPath30">
      <path
         d="M 0,1132 H 2494.49 V 0 H 0 Z"
         transform="translate(-1024.5645,-287.59181)"
         id="path30" />
    </clipPath>
    <clipPath
       clipPathUnits="userSpaceOnUse"
       id="clipPath32">
      <path
         d="M 0,1132 H 2494.49 V 0 H 0 Z"
         transform="translate(0,-2.5000001e-5)"
         id="path32" />
    </clipPath>
    <clipPath
       clipPathUnits="userSpaceOnUse"
       id="clipPath34">
      <path
         d="M 0,1132 H 2494.49 V 0 H 0 Z"
         transform="translate(-1129.9278,-304.43748)"
         id="path34" />
    </clipPath>
    <clipPath
       clipPathUnits="userSpaceOnUse"
       id="clipPath36">
      <path
         d="M 0,1132 H 2494.49 V 0 H 0 Z"
         transform="translate(-1230.3096,-306.88668)"
         id="path36" />
    </clipPath>
    <clipPath
       clipPathUnits="userSpaceOnUse"
       id="clipPath38">
      <path
         d="M 0,1132 H 2494.49 V 0 H 0 Z"
         transform="translate(-1318.9336,-298.20213)"
         id="path38" />
    </clipPath>
    <clipPath
       clipPathUnits="userSpaceOnUse"
       id="clipPath40">
      <path
         d="M 0,1132 H 2494.49 V 0 H 0 Z"
         transform="translate(-1443.006,-314.35638)"
         id="path40" />
    </clipPath>
    <clipPath
       clipPathUnits="userSpaceOnUse"
       id="clipPath42">
      <path
         d="M 0,1132 H 2494.49 V 0 H 0 Z"
         transform="translate(-1516.5391,-287.59181)"
         id="path42" />
    </clipPath>
    <clipPath
       clipPathUnits="userSpaceOnUse"
       id="clipPath44">
      <path
         d="M 0,1132 H 2494.49 V 0 H 0 Z"
         transform="translate(-1578.963,-323.23443)"
         id="path44" />
    </clipPath>
    <clipPath
       clipPathUnits="userSpaceOnUse"
       id="clipPath46">
      <path
         d="M 0,1132 H 2494.49 V 0 H 0 Z"
         transform="translate(-1635.3916,-287.59181)"
         id="path46" />
    </clipPath>
    <clipPath
       clipPathUnits="userSpaceOnUse"
       id="clipPath48">
      <path
         d="M 0,1132 H 2494.49 V 0 H 0 Z"
         transform="translate(0,-2.5000001e-5)"
         id="path48" />
    </clipPath>
    <clipPath
       clipPathUnits="userSpaceOnUse"
       id="clipPath50">
      <path
         d="M 0,1132 H 2494.49 V 0 H 0 Z"
         transform="translate(-1770.6564,-258.51461)"
         id="path50" />
    </clipPath>
    <clipPath
       clipPathUnits="userSpaceOnUse"
       id="clipPath52">
      <path
         d="M 0,1132 H 2494.49 V 0 H 0 Z"
         transform="translate(-1780.1602,-323.23443)"
         id="path52" />
    </clipPath>
    <clipPath
       clipPathUnits="userSpaceOnUse"
       id="clipPath54">
      <path
         d="M 0,1132 H 2494.49 V 0 H 0 Z"
         transform="translate(-1899.9453,-263.47271)"
         id="path54" />
    </clipPath>
    <clipPath
       clipPathUnits="userSpaceOnUse"
       id="clipPath56">
      <path
         d="M 0,1132 H 2494.49 V 0 H 0 Z"
         transform="translate(-1961.5908,-287.59181)"
         id="path56" />
    </clipPath>
  </defs>
  <g
     id="layer-MC0"
     transform="translate(-57.994298,-195.28732)">
    <path
       id="path1"
       d="m 0,0 h 63.01 v 87.195 c 0.346,12.906 3.205,21.577 8.574,25.876 5.24,4.331 10.784,6.322 16.63,5.986 8.964,-0.129 14.681,-3.129 17.321,-9.04 2.578,-5.954 3.66,-13.77 3.379,-23.449 V 0 h 63.01 v 113.353 c -0.477,18.892 -6.279,32.977 -17.193,42.211 -11,9.226 -24.099,13.794 -39.494,13.794 -12.471,0 -23.126,-2.122 -31.874,-6.389 -8.834,-4.2 -16.087,-10.522 -21.913,-18.771 h -0.627 v 20.991 H 0 Z"
       style="fill:#004a88;fill-opacity:1;fill-rule:evenodd;stroke:none"
       transform="matrix(2.1868224,0,0,-2.1868224,551.95929,768.61226)"
       clip-path="url(#clipPath2)" />
    <path
       id="path3"
       d="m 0,0 c 0,9.007 2.188,16.684 6.777,22.974 4.353,6.214 11.022,9.505 20.008,9.808 9.289,-0.249 16.131,-3.345 20.679,-9.429 C 51.945,17.256 54.22,9.559 54.22,0.26 54.349,-6.052 53.807,-12.266 52.682,-18.47 51.556,-24.738 49.088,-29.881 45.407,-34.048 41.725,-38.196 36.074,-40.36 28.388,-40.513 17.366,-39.994 9.766,-35.63 5.717,-27.292 1.711,-19.022 -0.281,-9.928 0,0 M 115.691,74.433 H 52.66 V 54.458 H 52.011 C 48.178,62.792 42.267,68.889 34.494,72.797 26.698,76.737 18.08,78.611 8.639,78.611 -7.08,78.459 -20.244,74.757 -30.855,67.677 -41.552,60.597 -49.52,51.144 -54.846,39.181 c -5.435,-11.812 -8.141,-24.998 -8.185,-39.538 0,-14.897 2.511,-28.463 7.535,-40.555 5.023,-12.17 12.775,-21.707 23.32,-28.951 10.328,-7.221 23.709,-10.89 39.906,-11.01 9.442,0.031 17.842,1.968 25.334,5.945 7.536,3.928 13.749,9.581 18.947,17.018 h 0.649 v -15.362 c 0.022,-4.819 -0.586,-10.102 -1.905,-15.873 -1.408,-5.877 -3.833,-10.912 -7.515,-15.275 -3.551,-4.268 -8.746,-6.56 -15.46,-6.776 -4.07,0.151 -7.622,1.428 -10.826,3.905 -3.183,2.438 -5.759,5.124 -7.622,8.133 -0.735,0.973 -1.342,2.014 -1.991,3.072 -0.671,1.03 -1.214,1.875 -1.624,2.751 h -62.295 c 2.121,-14.735 7.535,-26.091 16.195,-34.104 8.617,-8.01 19.229,-13.554 31.549,-16.629 12.363,-3.03 25.248,-4.503 38.478,-4.372 25.419,0.412 44.366,4.807 56.729,13.184 12.343,8.381 20.441,18.644 24.207,30.781 3.726,12.039 5.437,23.722 5.111,34.992 z"
       style="fill:#004a88;fill-opacity:1;fill-rule:evenodd;stroke:none"
       transform="matrix(2.1868224,0,0,-2.1868224,1063.1119,570.16555)"
       clip-path="url(#clipPath4)" />
    <path
       id="path5"
       d="m 0,0 c -9.461,-0.042 -16.803,-2.446 -22.216,-7.177 -5.413,-4.71 -8.878,-11.552 -10.305,-20.537 h 60.193 c -0.085,7.836 -2.685,14.355 -7.751,19.606 C 14.897,-2.933 8.25,-0.205 0,0"
       style="fill:#004a88;fill-opacity:1;fill-rule:evenodd;stroke:none"
       transform="matrix(2.1868224,0,0,-2.1868224,2426.2968,486.63922)"
       clip-path="url(#clipPath6)" />
    <path
       id="path7"
       d="m 0,0 c -2.986,1.17 -6.323,2.122 -10.024,2.88 -3.661,0.856 -8.596,1.256 -14.831,1.256 -12.474,0.141 -21.916,-3.756 -28.456,-11.714 -6.451,-8 -9.699,-20.744 -9.699,-38.25 v -65.283 h -63.095 V 54.068 h 60.498 V 27.662 h 0.606 c 5.023,9.874 11.173,17.494 18.535,22.726 7.404,5.174 16.672,7.859 28.019,7.859 C -12.188,58.149 -6.019,57.348 0,55.659 Z m -245.541,-65.802 c 5.348,-5.857 12.968,-8.921 22.864,-9.04 5.24,0 10.283,0.93 15.199,2.781 4.807,1.982 8.511,4.992 11.262,8.965 h 58.894 c -6.798,-17.712 -17.798,-30.965 -33.171,-39.387 -15.375,-8.628 -32.653,-12.852 -51.903,-12.818 -17.689,0.054 -33.54,3.476 -47.529,10.121 -13.856,6.725 -24.748,16.502 -32.824,29.308 -8.013,12.819 -12.084,28.463 -12.319,46.923 0.15,16.185 3.831,30.876 11.062,43.955 7.277,13.121 17.409,23.525 30.4,31.245 13.037,7.763 28.324,11.736 45.883,11.996 32.545,-0.26 56.428,-8.975 71.519,-26.31 15.07,-17.364 22.54,-42.287 22.347,-74.647 h -121.017 c 0.799,-9.549 3.874,-17.258 9.333,-23.092 m -119.504,-56.394 c -3.161,-8.283 -7.254,-15.603 -12.189,-22.054 -8.423,-9.919 -18.578,-15.85 -30.23,-17.972 -11.733,-2.037 -23.86,-2.902 -36.288,-2.404 h -28.671 v 50.298 h 14.639 c 3.291,-0.086 6.713,-0.086 10.305,-0.051 3.488,0.051 6.475,0.571 8.793,1.579 1.906,0.975 3.485,2.361 4.503,4.224 0.996,1.871 1.602,4.622 1.602,8.249 -0.128,2.196 -1.429,6.992 -3.852,14.214 -2.469,7.32 -5.35,15.406 -8.684,24.381 -3.357,8.954 -6.518,17.149 -9.376,24.586 -2.879,7.427 -4.827,12.505 -5.803,15.19 l -28.062,76.024 h 67.556 l 26.395,-94.861 h 0.606 l 26.784,94.861 h 65.33 l -54.762,-152.523 c -2.469,-7.567 -5.348,-15.406 -8.596,-23.741 m -117.185,11.085 h -63.031 v 86.568 c 0.302,9.679 -0.822,17.496 -3.422,23.449 -2.62,5.911 -8.335,8.911 -17.32,9.052 -5.741,0.324 -11.326,-1.667 -16.631,-5.998 -5.348,-4.298 -8.207,-12.97 -8.51,-25.876 v -87.195 h -63.074 V 54.068 h 60.822 V 33.087 h 0.672 c 5.846,8.249 13.12,14.571 21.848,18.771 8.77,4.267 19.422,6.389 31.916,6.389 15.395,0 28.536,-4.568 39.471,-13.793 11.023,-9.235 16.76,-23.32 17.259,-42.191 z M -665.175,72.006 h -63.053 v 47.875 h 63.053 z m 0,-183.117 h -63.053 V 54.165 h 63.053 z m -79.25,-79.219 h 759.43 v 341.391 h -759.43 z"
       style="fill:#004a88;fill-opacity:1;fill-rule:evenodd;stroke:none"
       transform="matrix(2.1868224,0,0,-2.1868224,2911.8332,525.63244)"
       clip-path="url(#clipPath8)" />
    <path
       id="path9"
       d="m 0,0 c -0.803,14 -5.328,24.793 -13.513,32.361 -8.294,7.578 -18.404,12.797 -30.38,15.667 -12.06,2.932 -24.141,4.318 -36.31,4.179 -11.433,0.139 -23.081,-1.354 -34.991,-4.321 -11.953,-3.021 -21.893,-8.423 -30.184,-15.99 -8.184,-7.697 -12.537,-18.438 -12.863,-32.242 -0.26,-14.03 5.068,-25.16 15.656,-33.453 10.783,-8.238 27.996,-14.431 51.814,-18.492 14.249,-2.328 23.775,-4.697 28.343,-7.07 4.699,-2.338 6.865,-5.834 6.39,-10.403 -0.324,-4.743 -2.859,-8.044 -7.536,-9.939 -4.656,-1.938 -9.31,-2.837 -13.751,-2.75 -3.874,0 -7.207,0.432 -10.154,1.3 -2.903,0.811 -5.067,2.014 -6.799,3.453 -2.338,2.045 -4.244,4.254 -5.456,6.766 -1.235,2.34 -2.037,5.014 -2.165,7.838 h -60.194 c 0.649,-14.16 4.978,-25.496 13.164,-34.038 8.142,-8.551 18.491,-14.746 30.918,-18.547 12.343,-3.82 25.184,-5.746 38.391,-5.66 13.708,-0.086 26.915,1.493 39.69,4.915 12.71,3.43 23.3,9.376 31.527,17.853 8.207,8.509 12.601,20.385 12.818,35.477 -0.303,13.425 -4.199,23.667 -11.8,30.726 -7.557,7.19 -16.78,12.385 -27.652,15.493 -10.826,3.313 -21.434,5.749 -31.612,7.383 -10.263,1.58 -18.165,3.367 -23.818,5.381 -1.82,0.748 -3.422,1.809 -4.892,3.086 -1.562,1.331 -2.296,3.183 -2.341,5.499 0.196,5.208 2.253,8.716 6.13,10.382 3.939,1.679 8.226,2.5 12.882,2.361 2.664,0 5.089,-0.487 7.537,-1.201 2.422,-0.813 4.61,-2.014 6.539,-3.54 2.099,-1.44 3.789,-3.206 5.109,-5.285 1.3,-2.056 1.99,-4.546 2.207,-7.189 z"
       style="fill:#004a88;fill-opacity:1;fill-rule:evenodd;stroke:none"
       transform="matrix(2.1868224,0,0,-2.1868224,3277.4813,512.42293)"
       clip-path="url(#clipPath10)" />
    <path
       id="path11"
       d="m 0,0 h -121.818 v -32.026 h 107.333 v -54.142 h -107.333 v -32.113 H -0.151 V -176.48 H -191.909 V 58.223 H 0 Z m -214.818,89.404 v -341.26 L 22.671,-252.03 V 89.404 Z"
       style="fill:#004a88;fill-opacity:1;fill-rule:evenodd;stroke:none"
       transform="matrix(2.1868224,0,0,-2.1868224,527.76311,390.798)"
       clip-path="url(#clipPath12)" />
    <path
       id="path13"
       d="m 517.001,347.593 h 27.456 v -89.078 h -27.456 z"
       style="fill:#004a88;fill-opacity:1;fill-rule:nonzero;stroke:none"
       transform="matrix(2.1868224,0,0,-2.1868224,-1064.4485,1862.6321)"
       clip-path="url(#clipPath14)" />
    <path
       id="path15"
       d="M 0,0 H 23.817 V -8.229 H 24.1 c 4.611,6.454 11.236,9.851 21.046,9.851 11.649,0 22.238,-7.101 22.238,-21.89 V -64.72 H 42.656 v 33.93 c 0,7.405 -0.867,12.729 -8.099,12.729 -4.221,0 -9.873,-2.119 -9.873,-12.535 V -64.72 H 0 Z"
       style="fill:#004a88;fill-opacity:1;fill-rule:nonzero;stroke:none"
       transform="matrix(2.1868224,0,0,-2.1868224,147.20488,1155.7759)"
       clip-path="url(#clipPath16)" />
    <path
       id="path17"
       d="m 0,0 c -8.878,0 -10.848,-8.36 -10.848,-15.916 0,-7.774 1.97,-16.111 10.848,-16.111 8.878,0 10.869,8.337 10.869,16.111 C 10.869,-8.36 8.878,0 0,0 M 34.645,-48.372 H 10.869 v 7.08 H 10.61 c -3.162,-4.071 -6.908,-8.705 -18.967,-8.705 -18.32,0 -27.198,18.101 -27.198,34.275 0,15.224 5.848,33.691 27.543,33.691 7.383,0 13.989,-3.268 17.711,-8.724 H 9.96 v 31.461 h 24.685 z"
       style="fill:#004a88;fill-opacity:1;fill-rule:nonzero;stroke:none"
       transform="matrix(2.1868224,0,0,-2.1868224,386.61076,1191.5255)"
       clip-path="url(#clipPath18)" />
    <path
       id="path19"
       d="m 0,0 h -23.817 v 8.227 h -0.26 c -4.635,-6.452 -11.217,-9.852 -21.069,-9.852 -11.627,0 -22.214,7.081 -22.214,21.955 v 44.39 h 24.705 V 30.812 c 0,-7.472 0.865,-12.689 8.14,-12.689 4.223,0 9.831,2.079 9.831,12.47 V 64.72 H 0 Z"
       style="fill:#004a88;fill-opacity:1;fill-rule:nonzero;stroke:none"
       transform="matrix(2.1868224,0,0,-2.1868224,630.27705,1297.3065)"
       clip-path="url(#clipPath20)" />
    <path
       id="path21"
       d="m 0,0 c -0.065,2.122 -1.191,3.727 -2.815,4.853 -1.538,1.254 -3.508,1.84 -5.522,1.84 -3.486,0 -7.471,-0.759 -7.471,-4.958 0,-1.906 1.473,-2.751 2.881,-3.38 4.114,-1.774 13.468,-2.252 21.696,-4.98 8.228,-2.643 15.46,-7.535 15.46,-18.1 0,-17.95 -17.236,-22.822 -32.912,-22.822 -15.244,0 -31.961,6.104 -32.306,22.822 h 23.557 c 0.109,-2.211 1.106,-4.093 2.989,-5.718 1.255,-1.169 3.638,-1.906 6.627,-1.906 3.247,0 8.357,1.258 8.357,5.024 0,3.726 -2.122,4.83 -13.62,6.864 -18.816,3.229 -26.416,9.202 -26.416,20.29 0,16.325 17.56,20.589 30.552,20.589 13.944,0 30.79,-3.874 31.44,-20.418 z"
       style="fill:#004a88;fill-opacity:1;fill-rule:nonzero;stroke:none"
       transform="matrix(2.1868224,0,0,-2.1868224,732.69884,1196.8814)"
       clip-path="url(#clipPath22)" />
    <path
       id="path23"
       d="M 0,0 H 13.207 V -15.201 H 0 v -22.564 c 0,-6.019 1.299,-8.616 7.578,-8.616 1.861,0 3.725,0.128 5.629,0.39 V -64.72 c -5.002,0 -10.608,-0.78 -15.85,-0.78 -10.479,0 -22.086,1.622 -22.086,19.378 v 30.921 h -11 V 0 h 11 V 19.702 H 0 Z"
       style="fill:#004a88;fill-opacity:1;fill-rule:nonzero;stroke:none"
       transform="matrix(2.1868224,0,0,-2.1868224,863.62417,1155.7759)"
       clip-path="url(#clipPath24)" />
    <path
       id="path25"
       d="m 0,0 h 23.667 v -10.329 h 0.261 c 3.983,7.686 9.202,11.951 18.187,11.951 2.512,0 4.851,-0.41 7.233,-1.016 v -21.804 c -2.491,0.93 -4.721,1.622 -9.702,1.622 -9.742,0 -14.983,-5.758 -14.983,-19.594 V -64.72 H 0 Z"
       style="fill:#004a88;fill-opacity:1;fill-rule:nonzero;stroke:none"
       transform="matrix(2.1868224,0,0,-2.1868224,900.79149,1155.7759)"
       clip-path="url(#clipPath26)" />
    <path
       id="path27"
       d="m 950.49,323.234 h 24.684 v -64.72 H 950.49 Z m 24.684,6.973 H 950.49 v 17.386 h 24.684 z"
       style="fill:#004a88;fill-opacity:1;fill-rule:nonzero;stroke:none"
       transform="matrix(2.1868224,0,0,-2.1868224,-1064.4485,1862.6321)"
       clip-path="url(#clipPath28)" />
    <path
       id="path29"
       d="m 0,0 c -3.01,-1.513 -6.344,-2.424 -9.722,-3.16 -5.5,-1.235 -8.358,-2.577 -8.358,-6.93 0,-3.029 3.248,-6.061 7.708,-6.061 5.63,0 10.003,3.419 10.372,10.132 z m 23.709,-14.593 c 0,-4.915 0.218,-10.371 2.967,-14.484 H 1.516 c -0.672,1.775 -1.039,4.414 -0.932,6.127 H 0.368 c -5.219,-6.019 -12.819,-7.752 -20.829,-7.752 -12.43,0 -22.78,6.039 -22.78,19.597 0,20.418 23.905,19.681 36.528,22.062 3.358,0.564 6.713,1.602 6.713,5.761 0,4.352 -4.113,5.976 -8.12,5.976 -7.578,0 -9.095,-3.897 -9.224,-6.628 h -22.951 c 0.389,9.052 4.85,14.507 11.216,17.497 6.257,2.99 14.507,3.724 22.106,3.724 30.9,0 30.682,-12.861 30.682,-25.334 z"
       style="fill:#004a88;fill-opacity:1;fill-rule:nonzero;stroke:none"
       transform="matrix(2.1868224,0,0,-2.1868224,1176.0922,1233.7198)"
       clip-path="url(#clipPath30)" />
    <path
       id="path31"
       d="m 1057.802,347.593 h 24.728 v -89.078 h -24.728 z"
       style="fill:#004a88;fill-opacity:1;fill-rule:nonzero;stroke:none"
       transform="matrix(2.1868224,0,0,-2.1868224,-1064.4485,1862.6321)"
       clip-path="url(#clipPath32)" />
    <path
       id="path33"
       d="m 0,0 c -0.087,2.122 -1.256,3.727 -2.838,4.853 -1.515,1.254 -3.529,1.86 -5.521,1.86 -3.487,0 -7.47,-0.779 -7.47,-4.978 0,-1.863 1.472,-2.751 2.901,-3.38 4.049,-1.774 13.468,-2.252 21.654,-4.98 8.227,-2.643 15.46,-7.49 15.46,-18.1 0,-17.95 -17.193,-22.822 -32.913,-22.822 -15.201,0 -31.938,6.104 -32.306,22.822 h 23.58 c 0.131,-2.211 1.105,-4.093 3.01,-5.718 1.213,-1.169 3.595,-1.906 6.604,-1.906 3.226,0 8.379,1.281 8.379,5.024 0,3.726 -2.165,4.83 -13.618,6.864 -18.859,3.229 -26.483,9.202 -26.483,20.333 0,16.282 17.605,20.569 30.575,20.569 13.965,0 30.834,-3.897 31.439,-20.441 z"
       style="fill:#004a88;fill-opacity:1;fill-rule:nonzero;stroke:none"
       transform="matrix(2.1868224,0,0,-2.1868224,1406.5027,1196.8814)"
       clip-path="url(#clipPath34)" />
    <path
       id="path35"
       d="m 0,0 c -8.856,0 -10.848,-8.338 -10.848,-15.916 0,-7.774 1.992,-16.111 10.848,-16.111 8.878,0 10.849,8.337 10.849,16.111 C 10.849,-8.338 8.878,0 0,0 M 34.666,-48.372 H 10.849 v 7.08 h -0.217 c -3.162,-4.071 -6.885,-8.705 -18.968,-8.705 -18.361,0 -27.196,18.101 -27.196,34.275 0,15.224 5.846,33.714 27.542,33.714 7.362,0 13.988,-3.291 17.756,-8.747 h 0.173 v 31.461 h 24.727 z"
       style="fill:#004a88;fill-opacity:1;fill-rule:nonzero;stroke:none"
       transform="matrix(2.1868224,0,0,-2.1868224,1626.0202,1191.5255)"
       clip-path="url(#clipPath36)" />
    <path
       id="path37"
       d="M 0,0 C 0,5.977 -4.46,10.826 -10.846,10.826 -18.187,10.826 -22.432,6.972 -23.535,0 Z m -23.687,-12.841 c 0.583,-7.381 4.851,-12.664 12.58,-12.664 4.004,0 8.336,1.536 10.371,4.677 h 23.018 c -4.916,-13.99 -18.578,-20.484 -33.236,-20.484 -20.723,0 -36.333,12.212 -36.333,33.842 0,18.774 13.727,34.146 34.165,34.146 25.682,0 36.832,-14.333 36.832,-39.517 z"
       style="fill:#004a88;fill-opacity:1;fill-rule:nonzero;stroke:none"
       transform="matrix(2.1868224,0,0,-2.1868224,1819.8251,1210.5169)"
       clip-path="url(#clipPath38)" />
    <path
       id="path39"
       d="m 0,0 c -0.478,3.291 -3.032,13.142 -14.291,13.142 -12.905,0 -16.999,-12.494 -16.999,-24.444 0,-11.998 4.094,-24.469 16.999,-24.469 9.18,0 12.795,6.54 14.419,14.855 h 26.916 c 0,-17.972 -14.573,-37.048 -40.644,-37.048 -28.798,0 -45.124,20.287 -45.124,46.662 0,28.039 17.691,46.64 45.124,46.64 C 10.847,35.208 24.293,22.324 26.696,0 Z"
       style="fill:#004a88;fill-opacity:1;fill-rule:nonzero;stroke:none"
       transform="matrix(2.1868224,0,0,-2.1868224,2091.1493,1175.1905)"
       clip-path="url(#clipPath40)" />
    <path
       id="path41"
       d="m 0,0 c -2.99,-1.493 -6.366,-2.424 -9.746,-3.16 -5.498,-1.235 -8.315,-2.577 -8.315,-6.93 0,-3.029 3.272,-6.061 7.709,-6.061 5.61,0 9.962,3.419 10.352,10.132 z m 23.687,-14.593 c 0,-4.915 0.261,-10.371 2.989,-14.484 H 1.493 c -0.583,1.775 -0.995,4.414 -0.845,6.127 H 0.39 c -5.241,-6.019 -12.864,-7.752 -20.831,-7.752 -12.471,0 -22.823,6.039 -22.823,19.597 0,20.418 23.95,19.681 36.508,22.062 C -3.38,11.521 0,12.559 0,16.718 c 0,4.352 -4.137,5.976 -8.056,5.976 -7.664,0 -9.16,-3.897 -9.288,-6.628 h -22.953 c 0.367,9.052 4.827,14.507 11.239,17.497 6.236,2.99 14.462,3.724 22.085,3.724 30.921,0 30.66,-12.861 30.66,-25.334 z"
       style="fill:#004a88;fill-opacity:1;fill-rule:nonzero;stroke:none"
       transform="matrix(2.1868224,0,0,-2.1868224,2251.9532,1233.7198)"
       clip-path="url(#clipPath42)" />
    <path
       id="path43"
       d="M 0,0 H 13.23 V -15.201 H 0 v -22.564 c 0,-6.019 1.365,-8.616 7.624,-8.616 1.86,0 3.743,0.128 5.606,0.39 V -64.72 c -4.958,0 -10.587,-0.78 -15.849,-0.78 -10.457,0 -22.043,1.622 -22.043,19.378 v 30.921 h -11 V 0 h 11 V 19.702 H 0 Z"
       style="fill:#004a88;fill-opacity:1;fill-rule:nonzero;stroke:none"
       transform="matrix(2.1868224,0,0,-2.1868224,2388.463,1155.7759)"
       clip-path="url(#clipPath44)" />
    <path
       id="path45"
       d="m 0,0 c -2.99,-1.493 -6.39,-2.424 -9.743,-3.16 -5.459,-1.235 -8.315,-2.577 -8.315,-6.93 0,-3.029 3.269,-6.061 7.729,-6.061 5.587,0 9.916,3.419 10.329,10.132 z m 23.709,-14.593 c 0,-4.915 0.217,-10.371 2.987,-14.484 H 1.493 c -0.629,1.775 -0.996,4.414 -0.865,6.127 H 0.324 c -5.155,-6.019 -12.798,-7.752 -20.786,-7.752 -12.431,0 -22.821,6.039 -22.821,19.597 0,20.418 23.945,19.681 36.55,22.062 3.376,0.564 6.733,1.602 6.733,5.761 0,4.352 -4.113,5.976 -8.076,5.976 -7.624,0 -9.183,-3.897 -9.225,-6.628 h -22.996 c 0.347,9.052 4.873,14.507 11.216,17.497 6.281,2.99 14.485,3.724 22.086,3.724 30.921,0 30.704,-12.861 30.704,-25.334 z"
       style="fill:#004a88;fill-opacity:1;fill-rule:nonzero;stroke:none"
       transform="matrix(2.1868224,0,0,-2.1868224,2511.8625,1233.7198)"
       clip-path="url(#clipPath46)" />
    <path
       id="path47"
       d="m 1668.627,347.593 h 24.729 v -89.078 h -24.729 z"
       style="fill:#004a88;fill-opacity:1;fill-rule:nonzero;stroke:none"
       transform="matrix(2.1868224,0,0,-2.1868224,-1064.4485,1862.6321)"
       clip-path="url(#clipPath48)" />
    <path
       id="path49"
       d="m 0,0 h -23.774 v 8.227 h -0.259 c -4.634,-6.452 -11.217,-9.852 -21.093,-9.852 -11.561,0 -22.171,7.081 -22.171,21.955 v 44.39 h 24.683 V 30.812 c 0,-7.472 0.868,-12.689 8.098,-12.689 4.245,0 9.831,2.122 9.831,12.47 V 64.72 H 0 Z"
       style="fill:#004a88;fill-opacity:1;fill-rule:nonzero;stroke:none"
       transform="matrix(2.1868224,0,0,-2.1868224,2807.6626,1297.3065)"
       clip-path="url(#clipPath50)" />
    <path
       id="path51"
       d="m 0,0 h 23.798 v -8.229 h 0.259 c 4.634,6.454 11.196,9.873 21.047,9.873 11.606,0 22.194,-7.1 22.194,-21.912 V -64.72 H 42.635 v 33.93 c 0,7.447 -0.864,12.729 -8.096,12.729 -4.289,0 -9.876,-2.119 -9.876,-12.535 V -64.72 H 0 Z"
       style="fill:#004a88;fill-opacity:1;fill-rule:nonzero;stroke:none"
       transform="matrix(2.1868224,0,0,-2.1868224,2828.4458,1155.7759)"
       clip-path="url(#clipPath52)" />
    <path
       id="path53"
       d="m 0,0 c -2.014,-5.738 -4.267,-13.1 -8.121,-17.887 -6.474,-8.118 -16.455,-8.033 -26.07,-8.033 h -11.213 v 19.705 h 5.757 c 2.446,0 5.76,-0.24 7.45,0.628 1.515,0.737 2.404,2.014 2.404,4.827 0,3.141 -9.484,26.939 -10.893,30.747 l -10.957,29.775 h 26.418 l 10.348,-37.136 h 0.282 l 10.459,37.136 h 25.593 z"
       style="fill:#004a88;fill-opacity:1;fill-rule:nonzero;stroke:none"
       transform="matrix(2.1868224,0,0,-2.1868224,3090.3946,1286.464)"
       clip-path="url(#clipPath54)" />
    <path
       id="path55"
       d="m 0,0 c -2.944,-1.493 -6.323,-2.424 -9.7,-3.16 -5.479,-1.235 -8.38,-2.577 -8.38,-6.93 0,-3.029 3.249,-6.061 7.774,-6.061 5.586,0 9.873,3.419 10.306,10.132 z m 23.71,-14.593 c 0,-4.915 0.238,-10.371 2.967,-14.484 H 1.536 c -0.672,1.775 -1.038,4.414 -0.888,6.127 H 0.347 c -5.198,-6.019 -12.818,-7.752 -20.766,-7.752 -12.493,0 -22.844,6.039 -22.844,19.597 0,20.418 23.949,19.681 36.55,22.062 3.379,0.564 6.713,1.602 6.713,5.761 0,4.352 -4.113,5.976 -8.099,5.976 -7.621,0 -9.136,-3.897 -9.224,-6.628 h -22.973 c 0.412,9.052 4.915,14.507 11.238,17.497 6.279,2.99 14.465,3.724 22.086,3.724 30.92,0 30.682,-12.861 30.682,-25.334 z"
       style="fill:#004a88;fill-opacity:1;fill-rule:nonzero;stroke:none"
       transform="matrix(2.1868224,0,0,-2.1868224,3225.2024,1233.7198)"
       clip-path="url(#clipPath56)" />
  </g>
</svg>
